<svg width="75px" height="75px" xmlns="http://www.w3.org/2000/svg" xmlns:xlink="http://www.w3.org/1999/xlink"><defs><path d="M22.098 71.701c3.501-2.662 7.036-5.64 10.603-8.934.51.473 1.157 1.157 1.938 2.053l3.512-3.445c-.222 1.616-.487 2.985-.796 4.106l5.643 1.602c2.292-7.7 1.672-18.14-1.86-31.322l-1.49-5.558 1.201-.322c2.456 8.324 6.428 15.27 11.915 20.842-1.908 3.828-4.424 7.368-7.547 10.62l4.667 3.522c2.962-3.095 5.43-6.645 7.404-10.65 3.246 2.108 6.802 3.83 10.668 5.169C61.148 68.842 50.043 75 37.5 75c-5.49 0-10.703-1.18-15.402-3.299zm-5.68-3.183C6.509 61.769 0 50.395 0 37.5 0 16.79 16.79 0 37.5 0a37.335 37.335 0 0 1 17.667 4.414L28.65 11.519l6.897 25.74c2.6 9.707 3.472 17.507 2.614 23.401-2.533-2.886-5.189-5.47-7.966-7.75l-4.188 3.323a30.853 30.853 0 0 1 2.99 2.82c-2.136 1.882-4.186 3.537-6.15 4.966L20.14 53.913l14.528-3.893-5.458-20.372-20.182 5.408 8.183 30.541c.237.883-.027 1.856-.792 2.92zM58.003 6.096C68.238 12.79 75 24.356 75 37.5c0 6.05-1.433 11.766-3.978 16.826-4.197-1.332-7.967-3.108-11.308-5.33 2.777-8.417 2.763-18.366-.042-29.846l-21.508 5.763-2.547-9.506 23.213-6.22-.828-3.091zm-27.878 14.71c-3.439-1.968-7.383-3.845-11.834-5.631.24-.538.366-1.08.378-1.625l-5.94.069C10.8 19.98 7.718 25.455 3.487 30.042l3.6 4.722c1.68-1.647 3.274-3.574 4.781-5.784l.635 2.37 12.286-3.293-1.109-4.137c.988.57 2.375 1.45 4.161 2.642l2.283-5.757zM22.72 23.5l-9 2.412c.833-1.352 1.706-3.188 2.619-5.51 2.263.951 4.39 1.984 6.381 3.098zm32.688 2.48c1.25 6.096 1.127 12.46-.369 19.089-3.865-4.403-6.848-9.934-8.948-16.593l9.317-2.496zM25.606 38.94l-8.843 2.37-.762-2.843 8.844-2.37.761 2.843zm2.065 7.707l-8.843 2.37-.838-3.128 8.844-2.37.837 3.128z" id="a"/></defs><g fill="#464748" fill-rule="nonzero"><circle cx="69.7916667" cy="5.20833333" r="5.20833333"/><use xlink:href="#a"/></g></svg>